<?xml version="1.0" encoding="UTF-8" standalone="no"?>
<!-- Created with Inkscape (http://www.inkscape.org/) -->

<svg
   width="48"
   height="48"
   viewBox="0 0 12.7 12.7"
   version="1.1"
   id="svg1"
   inkscape:version="1.4 (86a8ad7, 2024-10-11)"
   sodipodi:docname="EB-4.svg"
   inkscape:export-filename="EB-4.png"
   inkscape:export-xdpi="960"
   inkscape:export-ydpi="960"
   xmlns:inkscape="http://www.inkscape.org/namespaces/inkscape"
   xmlns:sodipodi="http://sodipodi.sourceforge.net/DTD/sodipodi-0.dtd"
   xmlns="http://www.w3.org/2000/svg"
   xmlns:svg="http://www.w3.org/2000/svg">
  <sodipodi:namedview
     id="namedview1"
     pagecolor="#ffffff"
     bordercolor="#000000"
     borderopacity="0.25"
     inkscape:showpageshadow="2"
     inkscape:pageopacity="0.0"
     inkscape:pagecheckerboard="0"
     inkscape:deskcolor="#d1d1d1"
     inkscape:document-units="mm"
     showguides="false"
     inkscape:zoom="11.313709"
     inkscape:cx="4.4194174"
     inkscape:cy="25.94198"
     inkscape:window-width="1920"
     inkscape:window-height="991"
     inkscape:window-x="-9"
     inkscape:window-y="-9"
     inkscape:window-maximized="1"
     inkscape:current-layer="svg1"
     inkscape:export-bgcolor="#ffffff00" />
  <defs
     id="defs1">
    <inkscape:path-effect
       effect="fillet_chamfer"
       id="path-effect5"
       is_visible="true"
       lpeversion="1"
       nodesatellites_param="F,0,0,1,0,0,0,1 @ F,0,0,1,0,0,0,1 @ F,0,0,1,0,0,0,1 @ F,0,0,1,0,0,0,1"
       radius="0"
       unit="px"
       method="auto"
       mode="F"
       chamfer_steps="1"
       flexible="false"
       use_knot_distance="true"
       apply_no_radius="true"
       apply_with_radius="true"
       only_selected="false"
       hide_knots="false" />
    <clipPath
       clipPathUnits="userSpaceOnUse"
       id="clipPath13">
      <rect
         style="fill:#ffffff;stroke-width:0.264583"
         id="rect13"
         width="8.4501305"
         height="8.6154947"
         x="1.1244792"
         y="2.133203" />
    </clipPath>
    <clipPath
       clipPathUnits="userSpaceOnUse"
       id="clipPath14">
      <rect
         style="fill:#ffffff;stroke-width:0.264583"
         id="rect14"
         width="8.4501305"
         height="8.6154947"
         x="1.1244792"
         y="2.133203" />
    </clipPath>
    <clipPath
       clipPathUnits="userSpaceOnUse"
       id="clipPath15">
      <rect
         style="fill:#ffffff;stroke-width:0.264583"
         id="rect15"
         width="8.4501305"
         height="8.6154947"
         x="1.1244792"
         y="2.133203" />
    </clipPath>
    <clipPath
       clipPathUnits="userSpaceOnUse"
       id="clipPath16">
      <g
         inkscape:label="Clip"
         id="use16" />
    </clipPath>
  </defs>
  <g
     inkscape:groupmode="layer"
     id="layer2"
     inkscape:label="图层 2"
     style="display:inline">
    <path
       style="display:none;fill:#28220b;stroke-width:0.149282"
       d="m 1.904166,2.8760422 v -0.338529 h 6.375637 l 0.282108,2.482549 H 8.279803 c 0,-1.5278938 -0.691556,-2.150152 -2.087598,-2.14402 -0.4956731,0.00218 -1.196763,0 -1.692647,0 -0.170422,0 -0.333628,-0.0049 -0.451373,0.112843 -0.117744,0.117745 -0.112843,0.264559 -0.112843,0.451373 v 2.53897 H 5.28946 v -1.128431 h 0.451372 v 2.651814 H 5.28946 V 6.3741792 H 3.935342 v 2.708236 c 0,0.155088 -0.00775,0.3307782 0.112843,0.451372 0.1205938,0.1205938 0.3022519,0.112843 0.451373,0.112843 h 1.974755 c 1.2295016,0 1.8419212,-0.383819 2.087598,-2.426127 H 8.844019 L 8.449068,10.098003 H 1.904166 V 9.6466302 h 1.128431 v -6.770588 z"
       id="path4"
       sodipodi:nodetypes="cccccsszsccccccccszsccccccccc"
       clip-path="none" />
    <path
       style="display:inline;fill:#800000;stroke-width:0.149282"
       d="M 6.192205,2.5375132 8.28,2.538 8.562,5.02 H 8.28 C 8.1844698,3.5175704 7.6922735,2.876 6.192,2.876 H 1.904 V 2.538 l 3.38546,-4.868e-4 0.0023,-0.507794 c 0,0 0.0045,-0.33176 -0.1151,-0.451373 C 5.057047,1.4587332 4.725287,1.4655032 4.725287,1.4655032 H 4.162503 v -0.394951 h 3.948035 c 1.53513,0 2.538971,1.317433 2.538971,2.651814 0,1.421853 -1.380059,2.426127 -1.861912,2.426127 0,0 2.14402,0.345995 2.14402,2.764657 0,1.3187938 -0.987189,2.8210778 -2.854959,2.8210778 -1.874766,0 -2.442648,-0.234045 -3.689943,-1.072009 -0.15339,-0.112156 -0.04821,-0.262248 0.112843,-0.169265 1.201703,0.656706 1.800681,0.73348 3.364609,0.73348 1.376034,0 1.99544,-1.375847 1.99544,-2.3132838 0,-0.968159 -0.458455,-2.538971 -1.410539,-2.538971 H 6.812842 L 6.813,9.082 H 6.418 V 3.4395831 L 6.813,3.44 6.812842,5.9792282 h 1.184853 c 0.625745,0 1.564082,-0.785965 1.564082,-2.290867 0,-1.267772 -0.525506,-2.222858 -1.453168,-2.222858 H 6.756421 c 0,0 -0.318386,-0.02014 -0.451373,0.112843 -0.132987,0.132987 -0.112843,0.451373 -0.112843,0.451373 z"
       id="path9"
       sodipodi:nodetypes="ccccccccczccccscsccccsccccccccscczcc" />
    <path
       style="display:inline;fill:#800000;fill-rule:evenodd;stroke-width:0.392072"
       d="M 3.935342,10.492954 H 3.032597 c -0.0016,0.12384 -0.113289,0.193338 -0.267671,0.207026 -0.09848,0.0087 -0.251218,-0.02228 -0.3292,-0.07464 -0.08286,-0.05564 -0.153657,-0.158029 -0.130333,-0.304345 0.01377,-0.08642 0.0547,-0.221101 0.445096,-0.222991 L 8.449,10.098 8.844,7.221 H 8.562 C 8.3158284,9.2673015 7.7101003,9.647 6.474,9.647 H 4.5 c -0.1517603,0 -0.3409731,0.004 -0.452,-0.113 C 3.9464621,9.4270004 3.935,9.2362423 3.935,9.082 V 6.769 H 3.033 V 9.647 L 2.75049,9.6466312 c -0.419124,0.0077 -0.846324,0.2819888 -0.846324,0.6206378 0,0.314818 0.157198,0.677063 0.738586,0.677058 0.447291,-4e-6 0.648692,-0.05089 0.93485,-0.169264 0.188367,-0.07792 0.36707,-0.282108 0.35774,-0.282109 z"
       id="path7"
       sodipodi:nodetypes="ccsssccccccscccccsssc" />
    <path
       style="fill:#800000;stroke-width:0.264583"
       d="M 3.033,3.2711181 V 6.374 H 5.289 V 7.503 H 5.741 V 4.851 H 5.289 V 5.979 H 3.935 V 3.271 Z"
       id="path22"
       sodipodi:nodetypes="ccccccccccc" />
  </g>
</svg>
